# xmcd
#
# Track frame offsets:
#  150
#  22487
#  78500
#  103150
#  173955
#  188392
#  216497
#
# Disc length: 3611 seconds
#
# Revision: 2
# Processed by: cddbd v1.5PL3 Copyright (c) Steve Scherf et al.
# Submitted via: AltoMP3_Maker 3.0
#
DISCID=610e1907
DTITLE=Atlanta Symphony Orchestra - Verdi - Four Sacred Pieces
DYEAR=1900
DGENRE=
TTITLE0=(Giuseppe Verdi) Quattro Pezzi Sacri - Ave Maria
TTITLE1=(Giuseppe Verdi) Quattro Pezzi Sacri - Stabat Mater
TTITLE2=(Giuseppe Verdi) Quattro Pezzi Sacri - Laudi alla Vergine Maria
TTITLE3=(Giuseppe Verdi) Quattro Pezzi Sacri - Te Deum
TTITLE4=(Igor Stravinsky) Symphony of Psalms, Part 1
TTITLE5=(Igor Stravinsky) Symphony of Psalms, Part II
TTITLE6=(Igor Stravinsky) Symphony of Psalms, Part III
EXTD=
EXTT0=
EXTT1=
EXTT2=
EXTT3=
EXTT4=
EXTT5=
EXTT6=
PLAYORDER=
